<svg xmlns="http://www.w3.org/2000/svg" xmlns:xlink="http://www.w3.org/1999/xlink" width="40" zoomAndPan="magnify" viewBox="0 0 30 30.000001" height="40" preserveAspectRatio="xMidYMid meet" version="1.0"><defs><clipPath id="b336466d23"><path d="M 3.542969 0.664062 L 26.769531 0.664062 L 26.769531 28.246094 L 3.542969 28.246094 Z M 3.542969 0.664062 " clip-rule="nonzero"/></clipPath></defs><g clip-path="url(#b336466d23)"><path fill="#12229d" d="M 8.265625 5.675781 L 8.265625 23.34375 L 21.277344 14.511719 Z M 22.15625 13.914062 L 22.5625 14.511719 Z M 6.234375 1.222656 C 7.476562 0.71875 9.074219 0.738281 10.410156 1.644531 L 24.707031 11.351562 C 25.765625 12.070312 26.425781 13.230469 26.425781 14.511719 C 26.425781 15.792969 25.765625 16.949219 24.707031 17.667969 L 10.410156 27.375 L 9.136719 25.5 L 10.410156 27.375 C 9.074219 28.28125 7.476562 28.304688 6.234375 27.796875 C 4.996094 27.292969 3.726562 26.066406 3.726562 24.21875 L 3.726562 4.804688 C 3.726562 2.957031 4.996094 1.730469 6.234375 1.222656 Z M 6.234375 1.222656 " fill-opacity="1" fill-rule="evenodd"/></g></svg>